<svg xmlns="http://www.w3.org/2000/svg" xmlns:xlink="http://www.w3.org/1999/xlink" fill="none" version="1.1" width="48" height="48" viewBox="0 0 48 48"><defs><clipPath id="master_svg0_8469_28591"><rect x="0" y="0" width="48" height="48" rx="0"/></clipPath></defs><g clip-path="url(#master_svg0_8469_28591)"><g style="opacity:0;"><rect x="0" y="0" width="48" height="48" rx="0" fill="#EAEAEA" fill-opacity="1"/></g><g><path d="M39.62998413085938,11.130002309570312C34.08918413085938,10.319782309570313,28.956184130859373,7.748022309570312,24.989984130859376,3.7950003095703124C24.440984130859373,3.2536563095703124,23.558984130859375,3.2536563095703124,23.009984130859372,3.7950003095703124C19.043784130859375,7.748022309570312,13.910794130859376,10.319782309570313,8.369984130859375,11.130002309570312C7.667958130859375,11.220362309570312,7.141722200859375,11.817182309570313,7.139984130859375,12.525002309570313C7.139984130859375,31.004992309570312,11.414984130859375,39.37499230957031,23.444984130859375,44.48999230957031C23.797884130859376,44.64919230957031,24.202084130859376,44.64919230957031,24.554984130859374,44.48999230957031C36.554984130859374,39.37499230957031,40.859984130859374,30.98999230957031,40.859984130859374,12.525002309570313C40.858284130859374,11.817182309570313,40.331984130859375,11.220352309570313,39.62998413085938,11.130002309570312ZM23.849984130859376,29.834992309570314C23.561584130859377,30.172192309570313,23.138684130859374,30.364492309570313,22.694984130859375,30.359992309570313C22.248884130859373,30.36069230957031,21.825484130859373,30.162792309570314,21.539984130859374,29.819992309570313L15.299984130859375,22.499992309570313L19.364984130859376,22.499992309570313L22.724984130859376,26.414992309570312L29.819984130859375,18.38999230957031L33.959984130859375,18.38999230957031L23.849984130859376,29.834992309570314Z" fill="#119EDF" fill-opacity="1"/></g></g></svg>