<svg xmlns="http://www.w3.org/2000/svg" xmlns:xlink="http://www.w3.org/1999/xlink" fill="none" version="1.1" width="28" height="28" viewBox="0 0 28 28"><defs><clipPath id="master_svg0_8469_22600"><rect x="0" y="0" width="28" height="28" rx="0"/></clipPath></defs><g clip-path="url(#master_svg0_8469_22600)"><g transform="matrix(0.7071067690849304,0.7071067690849304,-0.7071067690849304,0.7071067690849304,4.545899633259978,-9.71500635513803)"><path d="M24.5,9.0298828125L24.5,1.6798828125C24.5,1.0999838125,24.029899999999998,0.6298828125,23.45,0.6298828125C22.8701,0.6298828125,22.4,1.0999838125,22.4,1.6798828125L22.4,9.0298828125L15.05,9.0298828125C14.470101,9.0298828125,14,9.4999828125,14,10.0798828125C14,10.6597828125,14.470101,11.1298828125,15.05,11.1298828125L22.4,11.1298828125L22.4,18.4798828125C22.4,19.0597828125,22.8701,19.5298828125,23.45,19.5298828125C24.029899999999998,19.5298828125,24.5,19.0597828125,24.5,18.4798828125L24.5,11.1298828125L31.85,11.1298828125C32.4299,11.1298828125,32.9,10.6597828125,32.9,10.0798828125C32.9,9.4999828125,32.4299,9.0298828125,31.85,9.0298828125L24.5,9.0298828125Z" fill-rule="evenodd" fill="#050615" fill-opacity="1"/></g></g></svg>