<svg xmlns="http://www.w3.org/2000/svg" xmlns:xlink="http://www.w3.org/1999/xlink" fill="none" version="1.1" width="48" height="48" viewBox="0 0 48 48"><defs><clipPath id="master_svg0_8469_28598"><rect x="0" y="0" width="48" height="48" rx="0"/></clipPath></defs><g clip-path="url(#master_svg0_8469_28598)"><g style="opacity:0;"><rect x="0" y="0" width="48" height="48" rx="0" fill="#EAEAEA" fill-opacity="1"/></g><g><path d="M23.999981689453126,5.324951171875C13.686061689453124,5.324951887131,5.324981689453125,13.686031171875,5.324981689453125,23.999951171875C5.324981689453125,34.313851171875,13.686061689453124,42.674951171875,23.999981689453126,42.674951171875C34.313881689453126,42.674951171875,42.674981689453126,34.313851171875,42.674981689453126,23.999951171875C42.66668168945313,13.689461171875,34.31048168945313,5.333222391875,23.999981689453126,5.324951171875ZM31.574981689453125,24.479951171875L19.424981689453126,34.979951171875C19.187681689453125,35.196951171875,18.876481689453126,35.314951171874995,18.554981689453125,35.309951171875C18.293081689453125,35.309551171875,18.037281689453124,35.231251171875,17.819981689453122,35.084951171875005C17.339581689453127,34.750751171874995,17.132881689453125,34.142651171875,17.309981689453124,33.584951171875005L19.754981689453125,26.564951171875L18.164981689453125,26.564951171875C17.247681689453124,26.567751171875,16.607281689453124,25.657251171875,16.919981689453124,24.794951171875L20.174981689453126,15.614951171875C20.369081689453125,15.085871171875,20.871381689453123,14.733041171875,21.434981689453124,14.729951171875L29.639981689453126,14.729951171875C30.098981689453126,14.730051171875,30.525081689453124,14.968621171875,30.764981689453126,15.359951171875C30.989181689453126,15.766051171875,30.989181689453126,16.258851171875,30.764981689453126,16.664951171875L27.944981689453126,22.139951171875L30.644981689453125,22.139951171875C31.191281689453124,22.146351171875,31.678581689453125,22.485051171875,31.874981689453126,22.994951171875C32.088281689453126,23.504651171875,31.969481689453126,24.093051171875,31.574981689453125,24.479951171875Z" fill="#753CF9" fill-opacity="1"/></g></g></svg>