<svg xmlns="http://www.w3.org/2000/svg" xmlns:xlink="http://www.w3.org/1999/xlink" fill="none" version="1.1" width="20" height="20" viewBox="0 0 20 20"><defs><clipPath id="master_svg0_8469_25755"><rect x="0" y="0" width="20" height="20" rx="0"/></clipPath></defs><g clip-path="url(#master_svg0_8469_25755)"><g style="opacity:0;"><rect x="0" y="0" width="20" height="20" rx="0" fill="#EAEAEA" fill-opacity="1"/></g><g><path d="M17.01875457763672,10.5625L17.01875457763672,15.075C17.01875457763672,16.1485,16.148554577636716,17.0188,15.074954577636719,17.018700000000003L4.925004577636718,17.018700000000003C3.8515015776367187,17.0188,2.9812545776367188,16.1485,2.9812545776367188,15.075L2.9812545776367188,10.5625L4.231254577636719,10.5625L4.231254577636719,15.075C4.231254577636719,15.4581,4.541854577636719,15.7687,4.925004577636718,15.7687L15.075054577636719,15.7687C15.45815457763672,15.7687,15.768754577636718,15.4581,15.768754577636718,15.075L15.768754577636718,10.5625L17.01875457763672,10.5625ZM10.62500457763672,10.625L10.62500457763672,2.5L9.37500457763672,2.5L9.37500457763672,10.625L6.875004577636719,8.125L6.006254577636719,8.99375L9.556254577636718,12.5437C9.80073457763672,12.7902,10.199264577636718,12.7902,10.443754577636719,12.5437L13.993754577636718,8.99375L13.12495457763672,8.125L10.62500457763672,10.625Z" fill="#FFFFFF" fill-opacity="1"/></g></g></svg>