<svg xmlns="http://www.w3.org/2000/svg" xmlns:xlink="http://www.w3.org/1999/xlink" fill="none" version="1.1" width="48" height="48" viewBox="0 0 48 48"><defs><clipPath id="master_svg0_8469_28742"><rect x="0" y="0" width="48" height="48" rx="0"/></clipPath></defs><g clip-path="url(#master_svg0_8469_28742)"><g><path d="M41.4189529296875,7.30902546484375Q45.3000529296875,5.79402646484375,44.9810529296875,9.47302646484375C44.8730529296875,10.988026464843749,43.9020529296875,16.29102646484375,43.1460529296875,22.02602646484375L40.5560529296875,39.01602646484375Q40.3400529296875,41.50002646484375,38.4000529296875,41.93802646484375C36.4600529296875,42.37602646484375,33.541052929687496,40.42302646484375,33.0000529296875,39.99002646484375C32.5680529296875,39.66502646484375,24.9060529296875,34.79602646484375,22.2080529296875,32.41502646484375C21.4529529296875,31.76602646484375,20.5890529296875,30.46702646484375,22.3160529296875,28.95202646484375L33.6490529296875,18.13102646484375C34.9490529296875,16.831026464843752,36.2390529296875,13.802026464843749,30.8430529296875,17.48202646484375L15.7330529296875,27.76202646484375Q14.0060529296875,28.84402646484375,10.769002929687499,27.87002646484375L3.7530039296875,25.70502646484375Q1.1630029296875,24.08202646484375,5.5880029296875,22.458026464843748C16.3810529296875,17.37302646484375,29.6560529296875,12.17902646484375,41.4189529296875,7.30902546484375Z" fill="#D55C09" fill-opacity="1"/></g></g></svg>