<svg xmlns="http://www.w3.org/2000/svg" xmlns:xlink="http://www.w3.org/1999/xlink" fill="none" version="1.1" width="32" height="32" viewBox="0 0 32 32"><defs><clipPath id="master_svg0_8469_25762"><rect x="0" y="0" width="32" height="32" rx="0"/></clipPath></defs><g clip-path="url(#master_svg0_8469_25762)"><g style="opacity:0;"><rect x="0" y="0" width="32" height="32" rx="0" fill="#EAEAEA" fill-opacity="1"/></g><g><path d="M15.9999810546875,3.74330393471875C9.444801054687499,3.70365558671875,4.0413730546875,8.873928886718751,3.7920236546875,15.42455888671875C3.5426730546875,21.97505888671875,8.5374210546875,27.54115888671875,15.0766810546875,27.99995888671875C15.6839810546875,28.20675888671875,16.3426810546875,28.20675888671875,16.9499810546875,27.99995888671875C23.4957810546875,27.54235888671875,28.4940810546875,21.96765888671875,28.2372810546875,15.41095888671875C27.9804810546875,8.85429888671875,22.5614810546875,3.68753558671875,15.9999810546875,3.74330393471875ZM19.6666810546875,15.07665888671875L12.3333510546875,15.07665888671875C12.3687010546875,14.04575888671875,12.4689010546875,13.01821888671875,12.6333510546875,11.99996888671875C13.7446010546875,12.19809888671875,14.8712810546875,12.29737888671875,15.9999810546875,12.29663888671875C17.1287810546875,12.29736888671875,18.2553810546875,12.19809888671875,19.3666810546875,11.99996888671875C19.5315810546875,13.02151888671875,19.6317810546875,14.05245888671875,19.6666810546875,15.08665888671875L19.6666810546875,15.07665888671875ZM26.2866810546875,15.07665888671875L21.4866810546875,15.07665888671875C21.4549810546875,13.90485888671875,21.3436810546875,12.73661888671875,21.1533810546875,11.57996888671875C22.3426810546875,11.24309888671875,23.4750810546875,10.73079888671875,24.5133810546875,10.05996888671875C25.5335810546875,11.550978886718749,26.1418810546875,13.28502888671875,26.2766810546875,15.08665888671875L26.2866810546875,15.07665888671875ZM23.5399810546875,8.86996888671875C22.7003810546875,9.39571888671875,21.7931810546875,9.80501888671875,20.8433810546875,10.086638886718749C20.6517810546875,9.27930888671875,20.4011810546875,8.487168886718749,20.0933810546875,7.71663888671875C19.8693810546875,7.16123888671875,19.5983810546875,6.625958886718751,19.2833810546875,6.11663888671875C20.9088810546875,6.66672888671875,22.3717810546875,7.61297888671875,23.5399810546875,8.86996888671875ZM15.9999810546875,5.69330888671875C17.023381054687498,5.69330888671875,18.3333810546875,7.44330888671875,19.0633810546875,10.509968886718749C18.0518810546875,10.687328886718749,17.0268810546875,10.775448886718749,15.9999810546875,10.77330888671875C14.9731810546875,10.77530888671875,13.9480810546875,10.68719888671875,12.9366810546875,10.509968886718749C13.6833510546875,7.44330888671875,14.9766810546875,5.69330888671875,15.9999810546875,5.69330888671875ZM12.7066810546875,6.11996888671875C11.9890510546875,7.35505888671875,11.4683510546875,8.69447888671875,11.1633510546875,10.08996888671875C10.2112910546875,9.807208886718751,9.3019210546875,9.39680888671875,8.460011054687499,8.86996888671875C9.625831054687499,7.61557888671875,11.0851210546875,6.67058888671875,12.7066810546875,6.11996888671875ZM7.5000110546875,10.069968886718751C8.5382510546875,10.74079888671875,9.6707010546875,11.25309888671875,10.8600110546875,11.58996888671875C10.672321054687501,12.74695888671875,10.5609710546875,13.91505888671875,10.5266810546875,15.08665888671875L5.7233510546875,15.08665888671875C5.8626110546875,13.28695888671875,6.475571054687499,11.55615888671875,7.5000110546875,10.069968886718751ZM5.7400110546875,16.91995888671875L10.5133510546875,16.91995888671875C10.546851054687501,18.08165888671875,10.6582110546875,19.23985888671875,10.846681054687501,20.38665888671875C9.683921054687499,20.68915888671875,8.5639710546875,21.13715888671875,7.5133510546875,21.71995888671875C6.5263310546875,20.29545888671875,5.9162410546875,18.64405888671875,5.7400110546875,16.91995888671875ZM8.7066810546875,23.16995888671875C9.5073510546875,22.74745888671875,10.3510810546875,22.41225888671875,11.2233510546875,22.16995888671875C11.398571054687501,22.88615888671875,11.6212810546875,23.58995888671875,11.8900110546875,24.27665888671875C12.0717210546875,24.72695888671875,12.2833010546875,25.16455888671875,12.5233510546875,25.58665888671875C11.088891054687501,25.07155888671875,9.7857210546875,24.24635888671875,8.7066810546875,23.16995888671875ZM16.4966810546875,26.16995888671875C16.3299810546875,26.16995888671875,16.1633810546875,26.16995888671875,15.9999810546875,26.16995888671875C15.8366810546875,26.16995888671875,15.6666810546875,26.16995888671875,15.5033810546875,26.16995888671875C14.6199810546875,25.73665888671875,13.6433410546875,24.19325888671875,13.0100110546875,21.77665888671875C14.9908810546875,21.46095888671875,17.009181054687502,21.46095888671875,18.989981054687497,21.77665888671875C18.3566810546875,24.20995888671875,17.379981054687498,25.75325888671875,16.4966810546875,26.18665888671875L16.4966810546875,26.16995888671875ZM15.9999810546875,19.72325888671875C14.8720810546875,19.72295888671875,13.7460710546875,19.81545888671875,12.6333510546875,19.99995888671875C12.4690710546875,18.98055888671875,12.3688710546875,17.95185888671875,12.3333510546875,16.91995888671875L19.6666810546875,16.91995888671875C19.631181054687502,17.95185888671875,19.5309810546875,18.98055888671875,19.3666810546875,19.99995888671875C18.2539810546875,19.81545888671875,17.1278810546875,19.72295888671875,15.9999810546875,19.72325888671875ZM19.463381054687503,25.59995888671875C20.0479810546875,24.52265888671875,20.4873810546875,23.37265888671875,20.7699810546875,22.17995888671875C21.6445810546875,22.42165888671875,22.4905810546875,22.75695888671875,23.2933810546875,23.17995888671875C22.2113810546875,24.26005888671875,20.9032810546875,25.08655888671875,19.463381054687503,25.59995888671875ZM24.4866810546875,21.73665888671875C23.4365810546875,21.15265888671875,22.3164810546875,20.70465888671875,21.1533810546875,20.40325888671875C21.3392810546875,19.25615888671875,21.4505810546875,18.09815888671875,21.4866810546875,16.93665888671875L26.2599810546875,16.93665888671875C26.0837810546875,18.66075888671875,25.4736810546875,20.31205888671875,24.4866810546875,21.73665888671875Z" fill="#000000" fill-opacity="1"/></g></g></svg>