<svg xmlns="http://www.w3.org/2000/svg" xmlns:xlink="http://www.w3.org/1999/xlink" fill="none" version="1.1" width="96" height="32" viewBox="0 0 96 32"><defs><linearGradient x1="0.011050796136260033" y1="0.44768524169921875" x2="0.836703896522522" y2="0.44768524169921875" id="master_svg0_8469_25726"><stop offset="20.761366188526154%" stop-color="#6521FF" stop-opacity="1"/><stop offset="100%" stop-color="#7928FF" stop-opacity="1"/></linearGradient><linearGradient x1="0" y1="0.5" x2="1" y2="0.5" id="master_svg1_4643_06320"><stop offset="9.730224311351776%" stop-color="#FFE900" stop-opacity="1"/><stop offset="69.8962390422821%" stop-color="#FFD700" stop-opacity="1"/></linearGradient></defs><g><g style="opacity:0;"><rect x="0" y="0" width="96" height="32" rx="0" fill="#989898" fill-opacity="1"/></g><g><g><g><path d="M10.4159078125,3.292272984375L10.4159078125,28.707683984375C10.4160378125,28.823783984375,10.3510678125,28.930183984375,10.2477078125,28.983083984375C10.144357812500001,29.035983984375,10.0200578125,29.026583984375,9.9259078125,28.958583984375L5.1799118125,25.538283984375C5.0993374125,25.480083984375,5.0516510005,25.386683984375,5.0517578125,25.287383984375L5.0517578125,6.715813984375C5.0516501795,6.616433984375,5.0993366125,6.523063984375,5.1799118125,6.464883984375L9.9259178125,3.044580584375C10.0195878125,2.976941734375,10.1431678125,2.967199684375,10.2462778125,3.019324584375C10.349397812500001,3.071449384375,10.4148278125,3.176735984375,10.4159078125,3.292272984375Z" fill="url(#master_svg0_8469_25726)" fill-opacity="1"/><path d="M10.4159078125,3.292272984375L10.4159078125,28.707683984375C10.4160378125,28.823783984375,10.3510678125,28.930183984375,10.2477078125,28.983083984375C10.144357812500001,29.035983984375,10.0200578125,29.026583984375,9.9259078125,28.958583984375L5.1799118125,25.538283984375C5.0993374125,25.480083984375,5.0516510005,25.386683984375,5.0517578125,25.287383984375L5.0517578125,6.715813984375C5.0516501795,6.616433984375,5.0993366125,6.523063984375,5.1799118125,6.464883984375L9.9259178125,3.044580584375C10.0195878125,2.976941734375,10.1431678125,2.967199684375,10.2462778125,3.019324584375C10.349397812500001,3.071449384375,10.4148278125,3.176735984375,10.4159078125,3.292272984375Z" fill="#7025FF" fill-opacity="1"/></g><g><path d="M20.32952575,10.133957421875L24.55429875,7.135805221875C24.64855875,7.068965041875,24.77224875,7.060296021875,24.87491875,7.113331221875C24.97758875,7.166366421875,25.042088749999998,7.272245421875,25.04213875,7.387804421875L25.04213875,24.615357421875C25.04209875,24.730857421875,24.97758875,24.836757421875,24.87491875,24.889857421875C24.77224875,24.942857421875,24.64856875,24.934157421875,24.55429875,24.867357421875L20.32952675,21.869157421875002C20.24782955,21.811257421875,20.1992614746,21.717357421875,20.19921875,21.617157421875L20.19921875,10.385957421875C20.1992614746,10.285807421874999,20.24782785,10.191887421875,20.32952575,10.133957421875Z" fill="url(#master_svg1_4643_06320)" fill-opacity="1"/></g><g><path d="M23.798334375,5.8844558593750005L11.750773375,2.790459499375C11.555137375,2.741438759375,11.365489079,2.889235859375,11.365234375,3.090920859375L11.365234375,7.405075859375C11.365635329,7.549495859375,11.465658375,7.674525859375,11.606465375,7.706615859375L19.445394375,9.477075859374999C19.530904375,9.496275859375,19.620544375,9.478265859375,19.692004375,9.427535859375L23.899534375,6.441225859375C23.997634375,6.371685859375,24.046534375,6.251535859375,24.024834374999998,6.133245859375C24.003134375000002,6.0149458593750005,23.914734375000002,5.919995859375,23.798334375,5.889845859375L23.798334375,5.8844558593750005Z" fill="#FFE044" fill-opacity="1"/></g><g><path d="M19.445384375,22.51860458421875L11.606465375,24.292299824218752C11.465658375,24.32438982421875,11.365633686,24.44941982421875,11.365234375,24.59382982421875L11.365234375,28.90798982421875C11.365487436,29.10966982421875,11.555135375,29.25746982421875,11.750773375,29.20844982421875L23.798334375,26.10906982421875C23.914734375000002,26.07891982421875,24.003134375000002,25.98395982421875,24.024834374999998,25.86566982421875C24.046534375,25.74736982421875,23.997634375,25.62721982421875,23.899534375,25.55767982421875L19.692004375,22.56922012421875C19.619934375,22.51985346421875,19.530284375,22.50341102421875,19.445384375,22.52398788421875L19.445384375,22.51860458421875Z" fill="#FFE044" fill-opacity="1"/></g></g><g><path d="M32.13866793823242,10.264000137329102L33.94666793823242,10.264000137329102L38.778667938232424,19.1120001373291L38.85866793823242,19.256000137329103L39.96266793823242,10.264000137329102L41.77066793823242,10.264000137329102L40.29866793823242,22.280000137329104L38.49066793823242,22.280000137329104L33.64266793823242,13.464000137329101L33.57866793823242,13.320000137329101L32.47466793823242,22.280000137329104L30.666667938232422,22.280000137329104L32.13866793823242,10.264000137329102ZM43.994667938232425,12.168000137329102L44.23466793823242,10.248000137329102L46.33066793823242,10.248000137329102L46.09066793823242,12.168000137329102L43.994667938232425,12.168000137329102ZM44.73066793823242,22.280000137329104L42.890667938232426,22.280000137329104L43.994667938232425,13.368000137329101L45.83466793823242,13.368000137329101L44.73066793823242,22.280000137329104ZM49.018667938232426,22.264000137329102L47.17866793823242,22.264000137329102L48.74666793823242,9.656000137329102L50.586667938232424,9.656000137329102L49.738667938232425,16.5040001373291L53.30666793823242,13.368000137329101L55.89866793823242,13.368000137329101L51.17866793823242,17.3680001373291L55.098667938232424,22.264000137329102L52.714667938232424,22.264000137329102L49.54666793823242,18.040000137329102L49.018667938232426,22.264000137329102ZM56.39466793823242,17.1600001373291Q56.85866793823242,13.304000137329101,60.634667938232425,13.304000137329101L61.402667938232426,13.304000137329101Q64.71466793823242,13.304000137329101,64.71466793823242,16.3440001373291Q64.71466793823242,16.712000137329103,64.66666793823242,17.1440001373291L64.50666793823243,18.488000137329102Q64.04266793823243,22.344000137329104,60.26666793823242,22.344000137329104L59.49866793823242,22.344000137329104Q56.18666793823242,22.344000137329104,56.18666793823242,19.3040001373291Q56.18666793823242,18.936000137329103,56.23466793823242,18.5040001373291L56.39466793823242,17.1600001373291ZM60.47466793823242,20.6320001373291Q62.39466793823242,20.6320001373291,62.650667938232424,18.536000137329104L62.82666793823242,17.096000137329103Q62.85866793823242,16.776000137329103,62.85866793823242,16.648000137329102Q62.85866793823242,15.016000137329101,61.19466793823242,15.016000137329101L60.42666793823243,15.016000137329101Q58.506667938232425,15.016000137329101,58.250667938232425,17.1120001373291L58.07466793823242,18.552000137329102Q58.04266793823243,18.872000137329103,58.04266793823243,19.000000137329103Q58.04266793823243,20.6320001373291,59.70666793823242,20.6320001373291L60.47466793823242,20.6320001373291ZM66.12266793823242,22.280000137329104L67.62666793823243,9.944000137329102L69.46666793823242,9.944000137329102L67.96266793823241,22.280000137329104L66.12266793823242,22.280000137329104ZM72.85866793823243,22.280000137329104Q71.65866793823241,22.280000137329104,70.93866793823241,21.600000137329104Q70.21866793823241,20.9200001373291,70.21866793823241,19.832000137329103Q70.21866793823241,19.5920001373291,70.23466793823242,19.4640001373291Q70.37866793823243,18.472000137329104,70.74666793823242,17.8880001373291Q71.11466793823243,17.3040001373291,71.81066793823243,17.040000137329102Q72.50666793823243,16.776000137329103,73.64266793823242,16.776000137329103L76.33066793823242,16.776000137329103L76.34666793823243,16.648000137329102Q76.36266793823242,16.5680001373291,76.36266793823242,16.424000137329102Q76.36266793823242,15.800000137329102,75.94666793823242,15.416000137329101Q75.53066793823243,15.032000137329103,74.65066793823243,15.032000137329103L74.23466793823242,15.032000137329103Q72.81066793823243,15.032000137329103,71.67466793823243,15.112000137329101L71.91466793823241,13.480000137329101L72.37866793823243,13.448000137329101Q72.63466793823243,13.432000137329101,73.28266793823242,13.400000137329101Q73.93066793823243,13.368000137329101,74.41066793823242,13.368000137329101L74.84266793823242,13.368000137329101Q76.49066793823242,13.368000137329101,77.33866793823242,14.152000137329102Q78.18666793823243,14.936000137329103,78.18666793823243,16.2480001373291Q78.18666793823243,16.392000137329102,78.15466793823242,16.744000137329103L77.49866793823242,22.280000137329104L72.85866793823243,22.280000137329104ZM72.05866793823242,19.6560001373291Q72.05866793823242,20.1200001373291,72.32266793823243,20.3680001373291Q72.58666793823242,20.616000137329102,73.08266793823242,20.616000137329102L75.86666793823242,20.616000137329102L76.13866793823243,18.3760001373291L73.48266793823242,18.360000137329102Q72.87466793823242,18.344000137329104,72.51466793823242,18.5920001373291Q72.15466793823242,18.8400001373291,72.07466793823242,19.4640001373291L72.05866793823242,19.6560001373291ZM81.32266793823243,22.280000137329104L78.97066793823242,22.280000137329104L84.15466793823242,16.1200001373291L80.77866793823242,10.264000137329102L83.00266793823242,10.264000137329102L85.49866793823242,14.712000137329103L89.03466793823242,10.264000137329102L91.32266793823243,10.264000137329102L86.44266793823243,16.2480001373291L90.02666793823242,22.280000137329104L87.77066793823242,22.280000137329104L85.11466793823243,17.6560001373291L81.32266793823243,22.280000137329104Z" fill="#000000" fill-opacity="1"/></g></g></g></svg>